<?xml version="1.0" encoding="UTF-8" standalone="no"?>
<svg
   width="32"
   height="32"
   id="svg1"
   overflow="hidden"
   version="1.1"
   sodipodi:docname="favicon.svg"
   inkscape:version="1.4.4 (dcaf3e7, 2026-05-05)"
   xmlns:inkscape="http://www.inkscape.org/namespaces/inkscape"
   xmlns:sodipodi="http://sodipodi.sourceforge.net/DTD/sodipodi-0.dtd"
   xmlns="http://www.w3.org/2000/svg"
   xmlns:svg="http://www.w3.org/2000/svg">
  <sodipodi:namedview
     id="namedview1"
     pagecolor="#ffffff"
     bordercolor="#666666"
     borderopacity="1.0"
     inkscape:showpageshadow="2"
     inkscape:pageopacity="0.0"
     inkscape:pagecheckerboard="0"
     inkscape:deskcolor="#d1d1d1"
     inkscape:clip-to-page="true"
     inkscape:zoom="6.1885786"
     inkscape:cx="18.340237"
     inkscape:cy="-9.4528976"
     inkscape:window-width="1920"
     inkscape:window-height="1001"
     inkscape:window-x="-9"
     inkscape:window-y="-9"
     inkscape:window-maximized="1"
     inkscape:current-layer="g102" />
  <defs
     id="defs1" />
  <g
     id="layer1"
     transform="matrix(3.77953,0,0,3.77953,-43.376,-825.479)"
     style="fill:#b3b3b3">
    <g
       id="g102"
       fill="#FFFFFF"
       style="fill:#b3b3b3">
      <g
         id="g1"
         transform="matrix(0.17023565,0,0,0.17023565,9.5880764,181.29683)"
         style="fill:#1a1a1a">
        <path
           d="m 30.9068,221.636 c 0.3265,-0.327 0.3265,-1.071 0,-1.397 -0.3889,-0.389 -1.187,-0.302 -1.4319,0.155 -0.2977,0.556 -0.2765,0.773 0.1135,1.163 0.3961,0.396 0.9668,0.43 1.3184,0.079 z"
           id="path1"
           stroke-width="0.211667"
           style="fill:#1a1a1a" />
        <path
           d="m 29.5733,222.272 c -0.5944,-0.337 -0.7339,-0.6 -0.7376,-1.388 -0.004,-0.831 0.6291,-1.534 1.3822,-1.534 0.6975,0 1.5779,0.886 1.5779,1.587 0,0.633 -0.8602,1.591 -1.4191,1.581 -0.2091,-0.004 -0.5706,-0.114 -0.8034,-0.246 z"
           id="path2"
           stroke-width="0.211667"
           style="fill:#1a1a1a" />
        <path
           d="m 33.7008,224.112 c 0,-0.174 -0.0952,-0.317 -0.2117,-0.317 -0.1164,0 -0.2116,0.143 -0.2116,0.317 0,0.175 0.0952,0.318 0.2116,0.318 0.1164,0 0.2117,-0.143 0.2117,-0.318 z"
           id="path3"
           stroke-width="0.211667"
           style="fill:#1a1a1a" />
        <path
           d="m 32.8806,224.392 c -0.2631,-0.708 -0.0577,-1.053 0.5826,-0.979 0.4613,0.053 0.5551,0.172 0.5551,0.699 0,0.836 -0.8531,1.045 -1.1377,0.28 z"
           id="path4"
           stroke-width="0.211667"
           style="fill:#1a1a1a" />
        <path
           d="m 25.6423,224.755 c 0.9828,-0.508 1.1617,-1.566 0.4016,-2.375 -0.5086,-0.542 -1.0232,-0.615 -1.7233,-0.247 -0.6232,0.328 -0.7727,0.591 -0.7766,1.364 -0.004,0.745 0.519,1.309 1.436,1.551 0.0349,0.009 0.333,-0.123 0.6623,-0.293 z"
           id="path5"
           stroke-width="0.211667"
           style="fill:#1a1a1a" />
        <path
           d="m 23.6453,225.012 c -0.3687,-0.318 -0.593,-0.768 -0.6706,-1.346 -0.1011,-0.754 -0.0322,-0.964 0.5206,-1.583 1.3151,-1.472 3.4899,-0.657 3.4899,1.308 0,0.748 -0.1158,1.008 -0.6672,1.501 -0.8397,0.75 -1.8851,0.797 -2.6727,0.12 z"
           id="path6"
           stroke-width="0.211667"
           style="fill:#1a1a1a" />
        <path
           d="m 45.2069,224.985 c 0.9801,-0.41 1.5208,-1.575 1.1923,-2.571 -0.5287,-1.602 -2.2698,-2.095 -3.4014,-0.964 -0.4847,0.485 -0.6187,0.809 -0.6187,1.496 0,1.13 0.2955,1.66 1.1279,2.022 0.8455,0.368 0.8603,0.368 1.6999,0.017 z"
           id="path7"
           stroke-width="0.211667"
           style="fill:#1a1a1a" />
        <path
           d="m 42.9872,225.343 c -2.0397,-1.266 -1.4246,-4.692 0.9103,-5.071 0.9993,-0.162 2.1885,0.38 2.7095,1.235 0.4852,0.795 0.5518,2.145 0.1424,2.883 -0.667,1.202 -2.5806,1.687 -3.7622,0.953 z"
           id="path8"
           stroke-width="0.211667"
           style="fill:#1a1a1a" />
        <path
           d="m 51.6924,227.816 c 0.9391,-0.939 0.1723,-2.751 -1.1641,-2.751 -0.8045,0 -1.5875,0.783 -1.5875,1.587 0,0.26 0.1974,0.723 0.4387,1.03 0.5497,0.699 1.6827,0.765 2.3129,0.134 z"
           id="path9"
           stroke-width="0.211667"
           style="fill:#1a1a1a" />
        <path
           d="m 49.1269,228.279 c -0.5456,-0.488 -0.6672,-0.757 -0.6672,-1.475 0,-2.322 2.5519,-3.2 3.8249,-1.316 1.4224,2.105 -1.266,4.481 -3.1577,2.791 z"
           id="path10"
           stroke-width="0.211667"
           style="fill:#1a1a1a" />
        <path
           d="m 38.6621,222.056 c 0.7773,-1.11 0.0927,-2.784 -1.2406,-3.035 -1.5069,-0.282 -2.6336,1.012 -2.208,2.537 0.2174,0.779 0.4495,1.012 1.3012,1.309 0.79,0.275 1.6012,-0.032 2.1474,-0.811 z"
           id="path11"
           stroke-width="0.211667"
           style="fill:#1a1a1a" />
        <path
           d="m 43.3328,228.661 c 0.2329,-0.377 -0.1217,-1.056 -0.5513,-1.056 -0.5867,0 -0.773,0.63 -0.2905,0.983 0.4683,0.342 0.6649,0.359 0.8418,0.073 z"
           id="path12"
           stroke-width="0.211667"
           style="fill:#1a1a1a" />
        <path
           d="m 39.1822,228.338 c 0.3613,-0.411 0.6569,-0.892 0.6569,-1.069 0,-0.718 -0.6931,-1.616 -1.5399,-1.995 -0.8198,-0.367 -0.915,-0.37 -1.4642,-0.046 -0.8862,0.524 -1.3161,1.578 -1.0151,2.49 0.3045,0.923 0.9325,1.368 1.9277,1.368 0.6252,0 0.9065,-0.146 1.4346,-0.748 z"
           id="path13"
           stroke-width="0.211667"
           style="fill:#1a1a1a" />
        <path
           d="m 36.5191,229.423 c -1.5673,-0.708 -1.7864,-3.035 -0.405,-4.301 0.9898,-0.907 0.9911,-1.43 0.004,-1.756 -1.7485,-0.577 -2.1622,-3.515 -0.6358,-4.515 1.7473,-1.145 4.1431,0.062 4.1431,2.086 0,0.774 -0.635,1.864 -1.3641,2.341 -0.8227,0.539 -0.6869,1.067 0.3982,1.547 0.901,0.398 1.6025,1.276 1.6025,2.006 0,0.52 1.4403,0.783 2.0774,0.379 0.1531,-0.097 0.5044,-0.133 0.7808,-0.08 0.6066,0.116 1.0524,1.161 0.7423,1.741 -0.3893,0.727 -1.1215,0.7 -2.0981,-0.077 -0.1632,-0.13 -0.5891,-0.332 -0.9464,-0.448 -0.5903,-0.193 -0.7083,-0.148 -1.2909,0.489 -0.7602,0.831 -1.9531,1.064 -3.0085,0.588 z"
           id="path14"
           stroke-width="0.211667"
           style="fill:#1a1a1a" />
        <path
           d="m 53.1816,229.524 c -0.3384,-0.633 -0.2619,-1.03 0.2278,-1.186 0.6302,-0.2 1.128,0.348 0.9523,1.048 -0.1655,0.659 -0.8578,0.74 -1.1801,0.138 z"
           id="path15"
           stroke-width="0.211667"
           style="fill:#1a1a1a" />
        <path
           d="m 20.9313,229.215 c 0.8395,-0.722 0.8395,-2.075 0,-2.797 -0.6577,-0.566 -1.1282,-0.627 -1.9473,-0.254 -0.5606,0.256 -1.1582,1.152 -1.1582,1.738 0,1.554 1.8939,2.355 3.1055,1.313 z"
           id="path16"
           stroke-width="0.211667"
           style="fill:#1a1a1a" />
        <path
           d="m 18.8842,230.119 c -1.4124,-0.564 -1.9225,-1.722 -1.3682,-3.107 0.5496,-1.373 1.8617,-1.977 3.1378,-1.444 0.9763,0.408 1.4053,1.094 1.4053,2.248 0,1.152 -0.4288,1.841 -1.3967,2.245 -0.8138,0.34 -1.0501,0.348 -1.7782,0.058 z"
           id="path17"
           stroke-width="0.211667"
           style="fill:#1a1a1a" />
        <path
           d="m 24.3798,230.26 c 0.288,-0.347 0.127,-0.75 -0.2997,-0.75 -0.3209,0 -0.6011,0.575 -0.4217,0.866 0.172,0.278 0.4286,0.237 0.7214,-0.116 z"
           id="path18"
           stroke-width="0.211667"
           style="fill:#1a1a1a" />
        <path
           d="m 23.4879,230.974 c -0.4255,-0.247 -0.4972,-1.253 -0.1164,-1.634 0.1397,-0.139 0.5683,-0.254 0.9524,-0.254 0.6511,0 0.6985,0.049 0.6985,0.708 0,0.418 -0.159,0.852 -0.387,1.059 -0.4444,0.402 -0.6318,0.422 -1.1475,0.121 z"
           id="path19"
           stroke-width="0.211667"
           style="fill:#1a1a1a" />
        <path
           d="m 30.3079,230.465 c 0.7498,-0.387 1.387,-1.262 1.5846,-2.174 0.1615,-0.746 0.6457,-1.104 1.8083,-1.336 l 0.7408,-0.148 -0.8001,-0.025 c -0.4401,-0.013 -1.3897,-0.272 -2.1103,-0.575 -1.4937,-0.629 -2.7202,-0.613 -3.6117,0.046 -1.4654,1.084 -1.2604,3.392 0.3729,4.198 0.8189,0.405 1.2554,0.408 2.0155,0.015 z"
           id="path20"
           stroke-width="0.211667"
           style="fill:#1a1a1a" />
        <path
           d="m 28.6084,231.206 c -1.02,-0.294 -1.4285,-0.632 -1.872,-1.548 -0.5531,-1.142 -0.5599,-1.843 -0.0277,-2.886 0.5833,-1.143 1.9734,-1.81 3.3462,-1.604 0.547,0.082 1.2815,0.299 1.6323,0.482 0.3507,0.182 1.2093,0.387 1.9078,0.455 1.1733,0.114 1.2699,0.163 1.2699,0.643 0,0.431 -0.1477,0.557 -0.8723,0.741 -0.9849,0.25 -1.5618,0.658 -1.5618,1.105 0,0.555 -0.6276,1.524 -1.3227,2.041 -0.787,0.585 -1.7145,0.797 -2.4997,0.571 z"
           id="path21"
           stroke-width="0.211667"
           style="fill:#1a1a1a" />
        <path
           d="m 16.9791,230.991 c 0,-0.116 -0.0953,-0.211 -0.2116,-0.211 -0.1165,0 -0.2117,0.095 -0.2117,0.211 0,0.117 0.0953,0.212 0.2117,0.212 0.1164,0 0.2116,-0.095 0.2116,-0.212 z"
           id="path22"
           stroke-width="0.211667"
           style="fill:#1a1a1a" />
        <path
           d="m 16.0619,231.697 c -0.2775,-0.278 -0.1389,-1.296 0.1937,-1.424 0.9591,-0.368 1.5585,0.178 1.2527,1.142 -0.1322,0.416 -1.1194,0.609 -1.4464,0.282 z"
           id="path23"
           stroke-width="0.211667"
           style="fill:#1a1a1a" />
        <path
           d="m 41.5324,231.631 c 0.2778,-0.176 0.2714,-0.247 -0.0514,-0.57 -0.4286,-0.429 -0.9391,-0.115 -0.7241,0.445 0.1458,0.38 0.3259,0.409 0.7755,0.125 z"
           id="path24"
           stroke-width="0.211667"
           style="fill:#1a1a1a" />
        <path
           d="m 40.3048,232.007 c -0.7719,-0.771 0.2936,-2.146 1.2664,-1.634 0.8647,0.456 1.031,1 0.4753,1.556 -0.3936,0.393 -1.3821,0.438 -1.7417,0.078 z"
           id="path25"
           stroke-width="0.211667"
           style="fill:#1a1a1a" />
        <path
           d="m 34.2647,231.718 c 0.1668,-0.435 -0.168,-0.76 -0.5436,-0.527 -0.3199,0.197 -0.1726,0.859 0.1913,0.859 0.1238,0 0.2823,-0.15 0.3523,-0.332 z"
           id="path26"
           stroke-width="0.211667"
           style="fill:#1a1a1a" />
        <path
           d="m 33.0553,232.143 c -0.4402,-0.53 -0.0108,-1.453 0.7151,-1.537 0.325,-0.038 0.7281,0.045 0.8957,0.184 0.3704,0.308 0.3978,1.082 0.0507,1.429 -0.3598,0.36 -1.3369,0.315 -1.6615,-0.076 z"
           id="path27"
           stroke-width="0.211667"
           style="fill:#1a1a1a" />
        <path
           d="m 55.7304,233.336 c 0.7635,-0.763 0.7982,-1.549 0.0992,-2.248 -0.707,-0.707 -1.6433,-0.691 -2.2168,0.038 -0.7231,0.919 -0.4854,2.229 0.4748,2.616 0.754,0.303 0.9922,0.245 1.6428,-0.406 z"
           id="path28"
           stroke-width="0.211667"
           style="fill:#1a1a1a" />
        <path
           d="m 53.6208,234.094 c -1.0187,-0.588 -1.3346,-1.788 -0.762,-2.895 0.4072,-0.788 0.9143,-1.054 2.0044,-1.054 1.2313,0 1.9092,0.706 1.9092,1.989 0,1.262 -0.6346,2.022 -1.7994,2.155 -0.5042,0.058 -1.0509,-0.021 -1.3522,-0.195 z"
           id="path29"
           stroke-width="0.211667"
           style="fill:#1a1a1a" />
        <path
           d="m 51.6078,233.616 c -0.0753,-0.196 -0.1846,-0.309 -0.2428,-0.251 -0.0582,0.058 -0.0442,0.266 0.0311,0.463 0.0753,0.196 0.1846,0.309 0.2428,0.251 0.0582,-0.058 0.0442,-0.267 -0.0311,-0.463 z"
           id="path30"
           stroke-width="0.211667"
           style="fill:#1a1a1a" />
        <path
           d="m 50.7428,233.823 c -0.4642,-1.111 -0.4127,-1.35 0.2903,-1.35 0.7016,0 1.2943,0.724 1.2943,1.58 0,0.455 -0.0965,0.537 -0.6321,0.537 -0.5265,0 -0.6857,-0.128 -0.9525,-0.767 z"
           id="path31"
           stroke-width="0.211667"
           style="fill:#1a1a1a" />
        <path
           d="m 16.0291,234.51 c 0.2705,-0.413 0.2838,-0.604 0.0744,-1.063 -0.449,-0.986 -1.6774,-1.006 -2.1196,-0.036 -0.5717,1.255 1.2882,2.254 2.0451,1.099 z"
           id="path32"
           stroke-width="0.211667"
           style="fill:#1a1a1a" />
        <path
           d="m 13.9385,235.209 c -0.45,-0.354 -0.5577,-0.616 -0.5577,-1.36 0,-0.744 0.1077,-1.007 0.5577,-1.361 1.2079,-0.95 2.829,-0.17 2.829,1.361 0,1.531 -1.6211,2.311 -2.829,1.36 z"
           id="path33"
           stroke-width="0.211667"
           style="fill:#1a1a1a" />
        <path
           d="m 48.1858,233.889 c -0.0587,-0.153 0.0853,-0.452 0.32,-0.665 1.0131,-0.916 0.6689,-2.639 -0.6961,-3.482 -1.0769,-0.666 -2.0956,-0.589 -2.7659,0.207 -0.817,0.971 -0.7559,2.092 0.1691,3.101 0.6011,0.656 0.9009,0.805 1.8521,0.92 0.6242,0.075 1.1558,0.15 1.1812,0.167 0.0255,0.016 -0.002,-0.096 -0.0604,-0.248 z"
           id="path34"
           stroke-width="0.211667"
           style="fill:#1a1a1a" />
        <path
           d="m 48.0653,235.119 c -0.2508,-0.694 -0.3271,-0.741 -1.1981,-0.741 -1.2015,0 -2.0845,-0.623 -2.6293,-1.854 -0.6998,-1.582 -0.087,-3.151 1.4261,-3.651 1.0545,-0.348 1.8386,-0.1 2.9445,0.93 0.8878,0.827 0.9673,0.984 0.9673,1.911 0,0.68 -0.1421,1.211 -0.4338,1.62 -0.3384,0.476 -0.385,0.701 -0.2117,1.025 0.1222,0.228 0.2222,0.659 0.2222,0.958 0,0.858 -0.7548,0.721 -1.0872,-0.198 z"
           id="path35"
           stroke-width="0.211667"
           style="fill:#1a1a1a" />
        <path
           d="m 28.916,235.373 c 0.5844,-0.427 0.3777,-1.466 -0.3417,-1.718 -0.4553,-0.159 -0.6655,-0.119 -1.0054,0.188 -1.0807,0.978 0.1659,2.394 1.3471,1.53 z"
           id="path36"
           stroke-width="0.211667"
           style="fill:#1a1a1a" />
        <path
           d="m 27.3675,236.024 c -1.0879,-0.573 -1.0461,-2.086 0.0779,-2.822 1.4651,-0.96 3.2008,1.066 2.0749,2.422 -0.4671,0.563 -1.4853,0.752 -2.1528,0.4 z"
           id="path37"
           stroke-width="0.211667"
           style="fill:#1a1a1a" />
        <path
           d="m 21.8559,236.596 c 0.5878,-0.304 1.3341,-1.698 1.3313,-2.293 -7e-4,-0.15 -0.1282,-0.763 -0.1096,-1.153 0.015,-0.316 -0.1097,-0.471 -0.059,-0.664 0.0777,-0.298 -0.2832,-0.408 -1.0211,-0.323 -1.5408,0.178 -2.2807,0.535 -2.7056,1.232 -1.2307,2.018 0.5507,4.242 2.564,3.201 z"
           id="path38"
           stroke-width="0.211667"
           style="fill:#1a1a1a" />
        <path
           d="m 20.0303,237.257 c -0.7948,-0.352 -1.4929,-1.201 -1.6774,-2.041 -0.3445,-1.569 1.1887,-2.887 2.7187,-3.378 0.5333,-0.171 0.6272,-0.145 0.8023,-0.181 0.1721,-0.034 0.785,-0.246 1.0604,-0.207 0.4053,0.057 0.5104,0.212 0.5517,0.811 0.0281,0.408 0.1066,1.218 0.1747,1.8 0.1034,0.885 0.0431,1.176 -0.3686,1.779 -0.9532,1.397 -2.1409,1.913 -3.2618,1.417 z"
           id="path39"
           stroke-width="0.211667"
           style="fill:#1a1a1a" />
        <path
           d="m 53.3155,236.829 c -0.0705,-0.184 -0.2638,-0.334 -0.4296,-0.334 -0.4184,0 -0.618,0.626 -0.3157,0.99 0.2159,0.26 0.2926,0.258 0.5618,-0.011 0.1714,-0.171 0.254,-0.462 0.1835,-0.645 z"
           id="path40"
           stroke-width="0.211667"
           style="fill:#1a1a1a" />
        <path
           d="m 52.1723,237.924 c -0.6699,-0.857 -0.389,-2.064 0.4801,-2.064 0.5538,0 1.3684,0.665 1.3684,1.117 0,0.899 -1.3462,1.589 -1.8485,0.947 z"
           id="path41"
           stroke-width="0.211667"
           style="fill:#1a1a1a" />
        <path
           d="m 49.7404,238.917 c 0.7755,-0.543 0.5101,-2.11 -0.3763,-2.221 -0.6489,-0.081 -0.8435,0.026 -1.1587,0.635 -0.4195,0.811 -0.4079,0.984 0.1004,1.492 0.5095,0.51 0.8128,0.529 1.4346,0.094 z"
           id="path42"
           stroke-width="0.211667"
           style="fill:#1a1a1a" />
        <path
           d="m 47.9193,239.18 c -0.629,-0.67 -0.5941,-1.647 0.0877,-2.457 0.6561,-0.78 1.3345,-0.837 2.0863,-0.175 0.8286,0.729 0.9109,1.631 0.2232,2.448 -0.7098,0.844 -1.7056,0.92 -2.3972,0.184 z"
           id="path43"
           stroke-width="0.211667"
           style="fill:#1a1a1a" />
        <path
           d="m 20.5369,239.231 c -0.0417,-0.126 -0.1663,-0.228 -0.2769,-0.228 -0.1106,0 -0.2353,0.102 -0.277,0.228 -0.0417,0.125 0.0829,0.227 0.277,0.227 0.194,0 0.3186,-0.102 0.2769,-0.227 z"
           id="path44"
           stroke-width="0.211667"
           style="fill:#1a1a1a" />
        <path
           d="m 19.607,239.805 c -0.0668,-0.174 -0.09,-0.537 -0.0517,-0.808 0.0552,-0.389 0.2014,-0.491 0.7047,-0.491 0.5846,0 0.635,0.058 0.635,0.74 0,0.652 -0.0706,0.749 -0.5833,0.808 -0.3702,0.043 -0.6277,-0.048 -0.7047,-0.249 z"
           id="path45"
           stroke-width="0.211667"
           style="fill:#1a1a1a" />
        <path
           d="m 26.4764,239.862 c 0.6388,-0.595 0.5309,-1.451 -0.2369,-1.879 -0.5226,-0.291 -0.6414,-0.291 -1.1641,0 -0.7912,0.441 -0.9142,1.504 -0.2294,1.984 0.6458,0.452 1.0608,0.426 1.6304,-0.105 z"
           id="path46"
           stroke-width="0.211667"
           style="fill:#1a1a1a" />
        <path
           d="m 24.1902,240.113 c -0.5181,-0.727 -0.544,-1.105 -0.1302,-1.906 0.5929,-1.146 1.9969,-1.323 3.0262,-0.381 0.6333,0.58 0.6057,1.446 -0.0717,2.251 -0.457,0.543 -0.7006,0.651 -1.4672,0.651 -0.7731,0 -0.9889,-0.098 -1.3571,-0.615 z"
           id="path47"
           stroke-width="0.211667"
           style="fill:#1a1a1a" />
        <path
           d="m 26.2519,242.194 c -0.0417,-0.125 -0.1663,-0.228 -0.2769,-0.228 -0.1106,0 -0.2353,0.103 -0.277,0.228 -0.0417,0.125 0.0829,0.227 0.277,0.227 0.194,0 0.3186,-0.102 0.2769,-0.227 z"
           id="path48"
           stroke-width="0.211667"
           style="fill:#1a1a1a" />
        <path
           d="m 25.2364,242.742 c -0.3615,-0.436 -0.0969,-1.32 0.4464,-1.493 0.3078,-0.097 0.5842,-0.006 0.8843,0.295 0.372,0.372 0.4002,0.516 0.1913,0.974 -0.2792,0.613 -1.0989,0.733 -1.522,0.224 z"
           id="path49"
           stroke-width="0.211667"
           style="fill:#1a1a1a" />
        <path
           d="m 16.1854,242.805 c 1.4967,-1.761 -0.0875,-4.475 -2.3188,-3.972 -1.4422,0.325 -2.2193,1.702 -1.783,3.158 0.5824,1.944 2.7723,2.378 4.1018,0.814 z"
           id="path50"
           stroke-width="0.211667"
           style="fill:#1a1a1a" />
        <path
           d="m 12.809,243.912 c -0.8879,-0.542 -1.3334,-1.443 -1.3324,-2.697 0.001,-1.823 1.2066,-3.027 3.0303,-3.027 0.9225,0 2.0542,0.761 2.5248,1.698 1.3474,2.682 -1.6852,5.573 -4.2227,4.026 z"
           id="path51"
           stroke-width="0.211667"
           style="fill:#1a1a1a" />
        <path
           d="m 21.8499,246.496 c 0.8343,-0.754 1.21,-2.661 0.7439,-3.776 -0.2985,-0.715 -1.4047,-1.566 -2.0365,-1.568 -0.5904,-10e-4 -1.0542,0.713 -0.915,1.409 0.0945,0.473 -0.0118,0.836 -0.4217,1.44 -0.6031,0.889 -0.6667,1.315 -0.3123,2.093 0.4949,1.086 1.9624,1.287 2.9416,0.402 z"
           id="path52"
           stroke-width="0.211667"
           style="fill:#1a1a1a" />
        <path
           d="m 18.7911,246.88 c -0.7811,-0.815 -0.8292,-1.933 -0.1318,-3.061 0.3003,-0.486 0.5136,-1.169 0.5243,-1.678 0.0156,-0.741 0.1147,-0.914 0.7271,-1.273 0.7084,-0.415 0.7102,-0.415 1.6425,0.038 1.3974,0.679 1.8293,1.505 1.6981,3.246 -0.1808,2.397 -0.9876,3.349 -2.8385,3.349 -0.8589,0 -1.1232,-0.101 -1.6217,-0.621 z"
           id="path53"
           stroke-width="0.211667"
           style="fill:#1a1a1a" />
        <path
           d="m 13.7097,246.848 c 0.2181,-0.353 -0.2725,-0.758 -0.5645,-0.466 -0.2442,0.245 -0.0914,0.696 0.2356,0.696 0.1027,0 0.2507,-0.103 0.3289,-0.23 z"
           id="path54"
           stroke-width="0.211667"
           style="fill:#1a1a1a" />
        <path
           d="m 12.7564,247.408 c -0.3406,-0.41 -0.2002,-1.399 0.2375,-1.673 0.6036,-0.378 1.4452,0.151 1.4452,0.908 0,0.928 -1.1236,1.439 -1.6827,0.765 z"
           id="path55"
           stroke-width="0.211667"
           style="fill:#1a1a1a" />
        <path
           d="m 27.4037,247.542 c 0.7972,-0.684 0.1142,-2.157 -1.0005,-2.157 -1.2399,0 -1.4929,1.89 -0.3307,2.469 0.5324,0.266 0.7061,0.225 1.3312,-0.312 z"
           id="path56"
           stroke-width="0.211667"
           style="fill:#1a1a1a" />
        <path
           d="m 25.3848,248.134 c -1.1089,-0.872 -0.8471,-2.621 0.4743,-3.168 0.8298,-0.344 1.691,-0.017 2.1922,0.831 0.5135,0.869 0.4441,1.439 -0.2609,2.144 -0.7394,0.739 -1.621,0.81 -2.4056,0.193 z"
           id="path57"
           stroke-width="0.211667"
           style="fill:#1a1a1a" />
        <path
           d="m 23.0801,248.913 c 0.0461,-0.238 -0.0745,-0.353 -0.3705,-0.353 -0.2413,0 -0.4388,0.127 -0.4388,0.282 0,0.648 0.6856,0.708 0.8093,0.071 z"
           id="path58"
           stroke-width="0.211667"
           style="fill:#1a1a1a" />
        <path
           d="m 21.9569,249.697 c -0.5289,-0.528 -0.3281,-1.407 0.378,-1.654 1.1759,-0.411 1.9655,0.956 0.9592,1.661 -0.6099,0.427 -0.9052,0.425 -1.3372,-0.006 z"
           id="path59"
           stroke-width="0.211667"
           style="fill:#1a1a1a" />
        <path
           d="m 21.0847,251.187 c 0.172,-0.449 -0.0201,-0.722 -0.5073,-0.722 -0.4758,0 -0.7172,0.327 -0.5545,0.751 0.1583,0.412 0.9001,0.392 1.0618,-0.029 z"
           id="path60"
           stroke-width="0.211667"
           style="fill:#1a1a1a" />
        <path
           d="m 19.637,251.688 c -0.4355,-0.622 -0.4157,-0.925 0.0938,-1.435 0.8732,-0.873 2.2846,-0.214 1.9967,0.933 -0.2531,1.009 -1.5222,1.313 -2.0906,0.502 z"
           id="path61"
           stroke-width="0.211667"
           style="fill:#1a1a1a" />
        <path
           d="m 40.8594,252.843 c 0.0909,-0.637 -0.5586,-0.89 -0.9415,-0.366 -0.2141,0.293 -0.2243,0.458 -0.0418,0.678 0.3479,0.419 0.9041,0.243 0.9832,-0.312 z"
           id="path62"
           stroke-width="0.211667"
           style="fill:#1a1a1a" />
        <path
           d="m 39.4264,253.547 c -0.4339,-0.523 -0.182,-1.46 0.4769,-1.775 0.5102,-0.243 0.6659,-0.235 1.1113,0.057 0.5656,0.37 0.708,1.324 0.2639,1.768 -0.3516,0.352 -1.5454,0.319 -1.8521,-0.05 z"
           id="path63"
           stroke-width="0.211667"
           style="fill:#1a1a1a" />
        <path
           d="m 31.5725,252.654 c 1.003,-1.275 -0.7288,-2.926 -1.9296,-1.839 -0.8381,0.759 -0.1721,2.401 0.9734,2.401 0.304,0 0.6944,-0.229 0.9562,-0.562 z"
           id="path64"
           stroke-width="0.211667"
           style="fill:#1a1a1a" />
        <path
           d="m 29.9966,253.651 c -0.7501,-0.307 -1.2171,-1.019 -1.24,-1.892 -0.0386,-1.474 1.2835,-2.301 2.5941,-1.623 1.2895,0.667 1.5054,2.262 0.4289,3.167 -0.6749,0.568 -1.0613,0.644 -1.783,0.348 z"
           id="path65"
           stroke-width="0.211667"
           style="fill:#1a1a1a" />
        <path
           d="m 16.9954,252.598 c 0.8326,-0.833 0.8442,-1.874 0.0308,-2.784 -1.5676,-1.755 -4.2244,0.201 -3.135,2.308 0.6616,1.279 2.0827,1.497 3.1042,0.476 z"
           id="path66"
           stroke-width="0.211667"
           style="fill:#1a1a1a" />
        <path
           d="m 14.2676,253.435 c -1.4784,-0.927 -1.6484,-2.886 -0.3621,-4.172 0.5889,-0.589 0.8582,-0.703 1.6604,-0.703 2.3399,0 3.4653,2.691 1.8713,4.475 -0.774,0.866 -2.1498,1.04 -3.1696,0.4 z"
           id="path67"
           stroke-width="0.211667"
           style="fill:#1a1a1a" />
        <path
           d="m 37.2721,254.472 c 0.4022,-0.72 0.1763,-1.543 -0.5092,-1.855 -1.4274,-0.651 -2.571,0.754 -1.6662,2.046 0.4805,0.686 1.7478,0.574 2.1754,-0.191 z"
           id="path68"
           stroke-width="0.211667"
           style="fill:#1a1a1a" />
        <path
           d="m 35.1701,255.445 c -1.6734,-0.91 -0.9596,-3.499 0.9648,-3.499 1.4464,0 2.3598,1.463 1.7046,2.73 -0.5543,1.072 -1.5725,1.366 -2.6694,0.769 z"
           id="path69"
           stroke-width="0.211667"
           style="fill:#1a1a1a" />
        <path
           d="m 39.8498,256.087 c -0.4176,-0.503 -0.109,-1.005 0.5702,-0.927 0.4632,0.054 0.5833,0.176 0.5833,0.596 0,0.631 -0.7309,0.84 -1.1535,0.331 z"
           id="path70"
           stroke-width="0.211667"
           style="fill:#1a1a1a" />
        <path
           d="m 27.0471,255.771 c -0.5407,-0.564 -0.573,-0.682 -0.3571,-1.302 0.3937,-1.129 0.2869,-1.669 -0.4822,-2.438 -0.9226,-0.922 -2.1835,-1.011 -2.9855,-0.209 -0.9965,0.997 -0.947,2.278 0.1294,3.355 0.6105,0.61 0.689,0.63 1.9651,0.499 1.1643,-0.119 1.377,-0.083 1.7144,0.29 0.2118,0.234 0.4359,0.425 0.4978,0.425 0.0619,0 -0.1549,-0.279 -0.4819,-0.62 z"
           id="path71"
           stroke-width="0.211667"
           style="fill:#1a1a1a" />
        <path
           d="m 27.4566,256.991 c -0.2328,-0.129 -0.6276,-0.419 -0.8772,-0.644 -0.296,-0.268 -0.8881,-0.036 -0.8881,-0.036 -0.3833,0.073 -1.4386,0.131 -2.1423,-0.233 -1.0315,-0.533 -1.49,-1.309 -1.4891,-2.52 0.002,-2.003 1.0701,-3.021 2.9553,-2.815 0.7485,0.082 1.0937,0.265 1.6588,0.882 0.6774,0.739 0.7101,0.847 0.644,2.132 -0.0679,1.321 -0.0515,1.369 0.6695,1.978 0.6086,0.514 0.6991,0.69 0.5123,0.998 -0.2949,0.486 -0.5257,0.543 -1.0432,0.258 z"
           id="path72"
           stroke-width="0.211667"
           style="fill:#1a1a1a" />
        <path
           d="m 49.4632,258.392 c 0.6949,-0.177 1.97,-0.662 2.8336,-1.077 1.9687,-0.947 4.4845,-3.361 5.594,-5.369 2.0239,-3.661 2.7143,-9.598 1.612,-13.864 -0.1204,-0.465 -0.3177,-1.227 -0.4386,-1.693 l -0.2198,-0.846 -0.491,0.966 c -0.7281,1.433 -2.8794,3.309 -5.2962,4.621 -2.9773,1.615 -4.2816,2.544 -5.6502,4.022 -2.2787,2.461 -3.5194,6.112 -3.2081,9.44 0.0762,0.815 0.2093,1.614 0.2956,1.776 0.1093,0.205 0.8063,-0.578 2.2956,-2.577 1.2079,-1.621 3.4877,-4.259 5.2388,-6.062 2.7549,-2.835 3.6852,-3.596 3.6852,-3.014 0,0.231 -1.1019,1.793 -3.8316,5.432 -1.2225,1.63 -2.7856,3.773 -3.4736,4.763 -0.6879,0.989 -1.7514,2.328 -2.3633,2.975 l -1.1126,1.176 1.6335,-0.173 c 0.8984,-0.096 2.2019,-0.319 2.8967,-0.496 z"
           id="path73"
           stroke-width="0.211667"
           style="fill:#1a1a1a" />
        <path
           d="m 44.0724,259.366 c 0,-0.145 0.6031,-0.898 1.3402,-1.672 0.7371,-0.775 1.9457,-2.266 2.6859,-3.313 1.8635,-2.638 4.1924,-5.803 4.8296,-6.562 0.293,-0.349 -0.3674,0.27 -1.4674,1.376 -1.1001,1.106 -2.965,3.297 -4.1441,4.868 -2.1259,2.834 -3.1438,3.981 -3.3491,3.776 -0.0585,-0.059 -0.1682,-1.393 -0.2436,-2.965 -0.1622,-3.382 0.155,-5.105 1.3766,-7.478 0.9358,-1.819 3.399,-4.352 5.2161,-5.365 0.6985,-0.389 2.0766,-1.151 3.0624,-1.693 2.2381,-1.231 4.2338,-3.131 4.7672,-4.54 0.5139,-1.358 0.9275,-1.247 1.4194,0.38 1.78,5.886 1.0812,12.611 -1.7642,16.978 -1.7889,2.745 -5.0023,5.011 -8.3315,5.874 -1.7777,0.461 -5.3975,0.686 -5.3975,0.336 z"
           id="path74"
           stroke-width="0.211667"
           style="fill:#1a1a1a" />
        <path
           d="m 20.0929,258.667 c 0.6469,-0.707 0.763,-1.321 0.3874,-2.047 -0.6321,-1.222 -1.719,-1.408 -2.6708,-0.456 -0.7894,0.789 -0.8274,1.731 -0.0992,2.46 0.6817,0.681 1.78,0.701 2.3826,0.043 z"
           id="path75"
           stroke-width="0.211667"
           style="fill:#1a1a1a" />
        <path
           d="m 17.8708,259.469 c -1.4508,-0.651 -1.6383,-2.883 -0.3289,-3.913 0.8658,-0.681 2.2716,-0.596 3.0518,0.184 0.5152,0.515 0.6188,0.792 0.6188,1.654 0,0.861 -0.1012,1.132 -0.602,1.612 -0.7325,0.701 -1.8051,0.883 -2.7397,0.463 z"
           id="path76"
           stroke-width="0.211667"
           style="fill:#1a1a1a" />
        <path
           d="m 43.1199,259.778 c -0.0719,-0.116 -0.2204,-0.212 -0.3299,-0.212 -0.1096,0 -0.1992,0.096 -0.1992,0.212 0,0.117 0.1485,0.212 0.33,0.212 0.1815,0 0.2711,-0.095 0.1991,-0.212 z"
           id="path77"
           stroke-width="0.211667"
           style="fill:#1a1a1a" />
        <path
           d="m 42.2804,260.209 c -0.4779,-0.528 -0.2799,-1.066 0.3923,-1.066 0.7744,0 1.1881,0.214 1.1881,0.615 0,0.861 -0.9616,1.135 -1.5804,0.451 z"
           id="path78"
           stroke-width="0.211667"
           style="fill:#1a1a1a" />
        <path
           d="m 39.7145,260.82 c 0.6496,-0.772 0.695,-1.539 0.1443,-2.442 -0.9481,-1.555 -3.2959,-0.732 -3.2874,1.152 0.002,0.428 0.1774,1.039 0.39,1.359 0.3218,0.485 0.5385,0.582 1.2957,0.582 0.7556,0 1.002,-0.11 1.4574,-0.651 z"
           id="path79"
           stroke-width="0.211667"
           style="fill:#1a1a1a" />
        <path
           d="m 37.5731,261.935 c -1.0039,-0.097 -1.6295,-1.192 -1.493,-2.613 0.1234,-1.285 0.7722,-2.038 1.9148,-2.223 1.6374,-0.266 2.6909,0.731 2.6909,2.547 0,1.701 -1.0678,2.487 -3.1127,2.289 z"
           id="path80"
           stroke-width="0.211667"
           style="fill:#1a1a1a" />
        <path
           d="m 48.597,262.269 c 0.1775,-0.282 0.1499,-0.447 -0.1196,-0.717 -0.6341,-0.634 -1.5802,0.195 -1.0085,0.884 0.3291,0.396 0.819,0.324 1.1281,-0.167 z"
           id="path81"
           stroke-width="0.211667"
           style="fill:#1a1a1a" />
        <path
           d="m 47.0781,262.911 c -0.1397,-0.14 -0.254,-0.549 -0.254,-0.91 0,-0.361 0.1143,-0.771 0.254,-0.911 0.1397,-0.139 0.5493,-0.254 0.9102,-0.254 0.8398,0 1.1642,0.335 1.1642,1.2 0,0.466 -0.133,0.762 -0.4095,0.91 -0.5493,0.294 -1.3528,0.277 -1.6649,-0.035 z"
           id="path82"
           stroke-width="0.211667"
           style="fill:#1a1a1a" />
        <path
           d="m 33.7008,262.128 c 0,-0.207 -0.2456,-0.489 -0.5458,-0.626 -0.3002,-0.136 -0.2309,-0.624 -0.1899,-0.71 0.0411,-0.085 -0.0184,-0.165 0.2117,-0.551 0.3836,-0.643 0.4838,-0.691 1.2119,-0.58 0.992,0.153 1.0572,-0.21 0.0711,-0.395 -0.6204,-0.116 -0.7627,-0.261 -1.0054,-1.022 -0.5532,-1.736 -2.527,-2.399 -3.7793,-1.27 -0.8308,0.749 -1.025,1.827 -0.5207,2.889 0.4583,0.966 0.95,1.247 2.4298,1.39 1.0629,0.103 1.1901,0.172 1.4631,0.792 0.3088,0.701 0.6535,0.745 0.6535,0.083 z"
           id="path83"
           stroke-width="0.211667"
           style="fill:#1a1a1a" />
        <path
           d="m 32.6277,262.503 c -0.2798,-0.611 -0.3871,-0.664 -1.4145,-0.692 -0.9795,-0.026 -1.2044,-0.123 -1.8907,-0.809 -0.6838,-0.684 -0.7895,-0.929 -0.8649,-2.007 -0.0721,-1.03 -0.005,-1.347 0.4169,-1.969 0.6751,-0.994 1.4582,-1.347 2.6087,-1.174 1.1488,0.172 1.9494,0.79 2.4383,1.882 0.2795,0.625 0.5647,0.907 1.0846,1.075 0.5506,0.178 0.7055,0.345 0.7055,0.757 0,0.477 -0.0847,0.53 -0.8467,0.53 -1.155,0 -1.5151,0.569 -0.8925,1.411 0.3659,0.495 0.3968,0.675 0.1925,1.124 -0.3567,0.783 -1.1507,0.717 -1.5372,-0.128 z"
           id="path84"
           stroke-width="0.211667"
           style="fill:#1a1a1a" />
        <path
           d="m 25.6988,263.231 c 1.0631,-1.018 0.7116,-2.944 -0.6201,-3.396 -1.4086,-0.479 -2.7021,0.476 -2.7021,1.995 0,0.776 0.1075,1.041 0.5939,1.459 0.8296,0.714 1.9478,0.69 2.7283,-0.058 z"
           id="path85"
           stroke-width="0.211667"
           style="fill:#1a1a1a" />
        <path
           d="m 22.9058,263.971 c -1.5318,-1.037 -1.5432,-3.32 -0.0216,-4.344 2.0111,-1.353 4.4178,0.311 3.9622,2.739 -0.3232,1.723 -2.4724,2.598 -3.9406,1.605 z"
           id="path86"
           stroke-width="0.211667"
           style="fill:#1a1a1a" />
        <path
           d="m 26.7915,265.173 c -0.1925,-0.501 0.4088,-1.026 0.9714,-0.848 0.3182,0.101 0.4392,0.287 0.394,0.604 -0.0832,0.584 -1.1611,0.777 -1.3654,0.244 z"
           id="path87"
           stroke-width="0.211667"
           style="fill:#1a1a1a" />
        <path
           d="m 43.5826,265.033 c 0.5882,-0.553 0.6268,-1.229 0.1066,-1.871 -0.7802,-0.964 -2.3684,-0.307 -2.3684,0.979 0,0.632 0.6972,1.352 1.3093,1.352 0.2544,0 0.683,-0.207 0.9525,-0.46 z"
           id="path88"
           stroke-width="0.211667"
           style="fill:#1a1a1a" />
        <path
           d="m 41.382,265.44 c -0.635,-0.694 -0.7542,-1.303 -0.4141,-2.117 0.5252,-1.257 2.1313,-1.555 3.1099,-0.576 0.6133,0.613 0.5738,2.103 -0.0719,2.709 -0.6807,0.64 -2.0314,0.632 -2.6239,-0.016 z"
           id="path89"
           stroke-width="0.211667"
           style="fill:#1a1a1a" />
        <path
           d="m 30.9491,265.705 c 0.7637,-0.764 0.3879,-1.905 -0.6273,-1.905 -1.1346,0 -1.67,1.121 -0.9274,1.941 0.4565,0.504 1.0274,0.491 1.5547,-0.036 z"
           id="path90"
           stroke-width="0.211667"
           style="fill:#1a1a1a" />
        <path
           d="m 29.4739,266.492 c -0.7203,-0.364 -1.1623,-1.217 -0.9889,-1.907 0.4911,-1.957 3.3108,-1.822 3.3108,0.158 0,1.007 -0.09,1.392 -0.7762,1.747 -0.7221,0.374 -0.8808,0.339 -1.5457,0.002 z"
           id="path91"
           stroke-width="0.211667"
           style="fill:#1a1a1a" />
        <path
           d="m 37.5108,266.34 c 0.6473,-0.647 0.5772,-1.965 -0.1344,-2.525 -1.685,-1.325 -3.831,0.902 -2.3687,2.458 0.5992,0.638 1.8973,0.673 2.5031,0.067 z"
           id="path92"
           stroke-width="0.211667"
           style="fill:#1a1a1a" />
        <path
           d="m 35.2367,267.191 c -0.5786,-0.246 -1.3224,-1.414 -1.3235,-2.079 -0.0019,-1.357 1.3605,-2.514 2.7041,-2.296 0.9139,0.148 1.4435,0.614 1.7486,1.539 0.2771,0.839 4e-4,1.931 -0.635,2.506 -0.4772,0.432 -1.8323,0.611 -2.4942,0.33 z"
           id="path93"
           stroke-width="0.211667"
           style="fill:#1a1a1a" />
      </g>
    </g>
  </g>
</svg>
